<svg width="72" height="21" viewBox="0 0 72 21" fill="none" xmlns="http://www.w3.org/2000/svg">
<path d="M16.1095 1.2571V20H12.2476L4.71697 7.43608V20H0.855114V1.2571H4.71697L12.2605 13.8339V1.2571H16.1095ZM27.3217 4.46245L22.2241 20H18.1176L25.0819 1.2571H27.695L27.3217 4.46245ZM31.5569 20L26.4464 4.46245L26.0344 1.2571H28.6734L35.6762 20H31.5569ZM31.3252 13.0229V16.048H21.426V13.0229H31.3252ZM52.0376 10.2037V17.6314C51.7459 17.9833 51.2953 18.3651 50.686 18.7771C50.0767 19.1804 49.2914 19.528 48.3303 19.8198C47.3691 20.1116 46.2062 20.2575 44.8417 20.2575C43.6317 20.2575 42.5289 20.0601 41.5334 19.6653C40.5379 19.262 39.6797 18.6741 38.9588 17.9017C38.2465 17.1293 37.6973 16.1853 37.3111 15.0697C36.9249 13.9455 36.7318 12.6625 36.7318 11.2207V10.0493C36.7318 8.60751 36.9163 7.32451 37.2853 6.20028C37.6629 5.07605 38.1993 4.12775 38.8944 3.35538C39.5896 2.58301 40.4177 1.99515 41.3789 1.5918C42.3401 1.18845 43.4085 0.986771 44.5843 0.986771C46.2148 0.986771 47.5536 1.25281 48.6006 1.78489C49.6476 2.30839 50.4457 3.03785 50.9949 3.97328C51.5528 4.90012 51.896 5.96428 52.0248 7.16575H48.2788C48.1844 6.53069 48.0041 5.97715 47.7381 5.50515C47.4721 5.03314 47.0902 4.66412 46.5924 4.39808C46.1033 4.13204 45.4682 3.99902 44.6872 3.99902C44.0436 3.99902 43.4686 4.13204 42.9623 4.39808C42.4645 4.65554 42.044 5.03743 41.7007 5.54377C41.3575 6.0501 41.0957 6.67658 40.9155 7.42321C40.7353 8.16983 40.6452 9.03661 40.6452 10.0235V11.2207C40.6452 12.199 40.7396 13.0658 40.9284 13.821C41.1172 14.5676 41.3961 15.1984 41.7651 15.7133C42.1427 16.2197 42.6061 16.6016 43.1554 16.859C43.7046 17.1165 44.344 17.2452 45.0734 17.2452C45.6827 17.2452 46.1891 17.1937 46.5924 17.0907C47.0044 16.9877 47.3348 16.8633 47.5836 16.7174C47.8411 16.5629 48.0385 16.4171 48.1758 16.2797V12.9585H44.6486V10.2037H52.0376ZM62.7736 4.46245L57.676 20H53.5695L60.5337 1.2571H63.1469L62.7736 4.46245ZM67.0088 20L61.8983 4.46245L61.4863 1.2571H64.1253L71.1281 20H67.0088ZM66.7771 13.0229V16.048H56.8778V13.0229H66.7771Z" fill="white"/>
</svg>
