<svg width="122" height="19" viewBox="0 0 122 19" fill="none" xmlns="http://www.w3.org/2000/svg">
<path d="M18.1801 18C24.0027 18 26.945 16.2037 26.945 12.611V5.89025C26.945 2.26662 24.0027 0.501258 18.1801 0.501258H15.1449C14.2158 0.501258 13.999 1.02777 13.999 2.08079C13.999 3.10284 14.2158 3.62935 15.1449 3.62935H18.0562C21.525 3.62935 23.0116 4.37266 23.0116 5.54957V5.58054H9.75594C3.93335 5.58054 0.991079 7.3459 0.991079 10.9695V12.611C0.991079 16.2037 3.93335 18 9.75594 18H18.1801ZM18.0562 14.8719H9.87982C6.41104 14.8719 4.92443 13.8499 4.92443 12.611V10.8456C4.92443 9.57583 6.41104 8.58475 9.87982 8.58475H23.0116V12.611C23.0116 13.8499 21.525 14.8719 18.0562 14.8719ZM52.4406 0.377372C51.1088 0.377372 50.4584 0.656114 50.4584 1.83302V12.611C50.4584 13.8808 48.9718 14.8719 45.503 14.8719H38.3487C34.8799 14.8719 33.3933 13.8808 33.3933 12.611V1.83302C33.3933 0.656114 32.7429 0.377372 31.4421 0.377372C30.1103 0.377372 29.4599 0.656114 29.4599 1.83302V12.611C29.4599 16.2346 32.4022 18 38.2248 18H45.6269C51.4495 18 54.3918 16.2346 54.3918 12.611V1.83302C54.3918 0.656114 53.7414 0.377372 52.4406 0.377372ZM65.0652 0.501258C59.893 0.501258 57.0437 2.29759 57.0437 5.85928V16.6682C57.0437 17.8451 57.6941 18.1239 58.9949 18.1239C60.3266 18.1239 60.977 17.8451 60.977 16.6682V5.85928C60.977 4.4346 61.9991 3.62935 65.0652 3.62935H67.481C68.4101 3.62935 68.5959 3.10284 68.5959 2.08079C68.5959 1.05874 68.4101 0.501258 67.481 0.501258H65.0652ZM92.7806 11.0315C94.3601 11.0315 94.6389 10.6598 94.6389 9.45194V5.89025C94.6389 2.26662 92.0683 0.501258 85.874 0.501258H78.7197C72.8971 0.501258 69.9548 2.26662 69.9548 5.89025V12.611C69.9548 16.2037 72.8971 18 78.7197 18H82.4052C83.3344 18 83.5202 17.4425 83.5202 16.4205C83.5202 15.3984 83.3344 14.8719 82.4052 14.8719H78.8435C75.3748 14.8719 73.8882 13.8499 73.8882 12.611V11.0315H92.7806ZM73.8882 5.89025C73.8882 4.62043 75.3748 3.62935 78.8435 3.62935H85.7501C89.2189 3.62935 90.7055 4.46557 90.7055 5.89025V7.96532H73.8882V5.89025ZM98.8582 18.1239C100.19 18.1239 100.84 17.8451 100.84 16.6682V5.89025C100.84 4.62043 102.327 3.62935 105.796 3.62935H112.3C115.769 3.62935 117.255 4.62043 117.255 5.89025V16.6682C117.255 17.8451 117.906 18.1239 119.206 18.1239C120.538 18.1239 121.188 17.8451 121.188 16.6682V5.89025C121.188 2.26662 118.246 0.501258 112.424 0.501258H105.672C99.8493 0.501258 96.907 2.26662 96.907 5.89025V16.6682C96.907 17.8451 97.5574 18.1239 98.8582 18.1239Z" fill="white"/>
</svg>
